{"title":"Wrong Turn 6, Last Resort 2014 DVDrip English Klam","uid":11257479,"size":1447040306,"categoryP":"video","categoryS":"movies","magnet":"?xt=urn:btih:53bd35d98ac44cac38a3bfb98c25600a2106e353&amp;dn=Wrong+Turn+6%2C+Last+Resort+2014+DVDrip+English+Klam&amp;tr=udp%3A%2F%2Ftracker.openbittorrent.com%3A80&amp;tr=udp%3A%2F%2Fopen.demonii.com%3A1337&amp;tr=udp%3A%2F%2Ftracker.coppersurfer.tk%3A6969&amp;tr=udp%3A%2F%2Fexodus.desync.com%3A6969","seeders":2,"leechers":1,"uploader":"Klambake","files":-1,"time":1413920622,"description":"With: Sadie Katz, Anthony Ilott and Aqueela Zoll\n\nEen plotselinge en mysterieuze erfenis brengt Danny en zijn vrienden naar Hobb Springs, een vergeten plaats diep in de Heuvels van West Virginia. Hobb Springs wordt onderhouden door de waakzame Jackson en Sally, een onhandig paar dat Danny voorstelt aan zijn lang verloren familie: een clan met de naam Hillicker. Danny komt er al snel achter dat zijn familie een andere en vreemde manier van leven heeft.\n\nA sudden and mysterious inheritance brings Danny and his friends to Hobb Springs, a forgotten resort deep in the West Virginia hills. Hobb Springs is being looked after under the watchful ...\n &lt;a href=&quot;\nhttp://www.imdb.com/title/tt3612032&quot; rel=&quot;nofollow&quot; target=&quot;_NEW&quot;&gt;\nhttp://www.imdb.com/title/tt3612032&lt;/a&gt;\t\n\n--------------------- Dutch Friends 4ever ---------------------\n---------------------------------------------------------------\n- Bezoek ook eens mijn vrienden op: &lt;a href=&quot; http://www.Film-Test.nl&quot; rel=&quot;nofollow&quot; target=&quot;_NEW&quot;&gt; http://www.Film-Test.nl&lt;/a&gt; --\n----- voor mijn Nederlandse Sync. ondertitels ---- en meer ----\n------- http://www.Film-Test.nl ---- Over Films en meer -------\n---------------------------------------------------------------\n\nGeneral:\n\nComplete name                            : Wrong Turn 6movie.avi\nFormat                                   : AVI\nFormat/Info                              : Audio Video Interleave\nFile size                                : 1.35 GiB\nDuration                                 : 1h 30mn\nOverall bit rate                         : 2 132 Kbps\n\nVideo:\n\nFormat                                   : MPEG-4 Visual\nFormat profile                           : Simple@L3\nFormat settings, BVOP                    : No\nFormat settings, QPel                    : No\nFormat settings, GMC                     : No warppoints\nFormat settings, Matrix                  : Default (H.263)\nCodec ID                                 : XVID\nCodec ID/Hint                            : XviD\nDuration                                 : 1h 30mn\nBit rate                                 : 1 673 Kbps\nWidth                                    : 652 pixels\nHeight                                   : 352 pixels\nDisplay aspect ratio                     : 1.85:1\nFrame rate                               : 25.000 fps\nColor space                              : YUV\nChroma subsampling                       : 4:2:0\nBit depth                                : 8 bits\nScan type                                : Progressive\nCompression mode                         : Lossy\nBits/(Pixel*Frame)                       : 0.292\nStream size                              : 1.06 GiB (78%)\nWriting library                          : XviD 1.1.2 (UTC 2006-11-01)\n\nAudio:\n\nFormat                                   : AC-3\nFormat/Info                              : Audio Coding 3\nMode extension                           : CM (complete main)\nFormat settings, Endianness              : Big\nCodec ID                                 : 2000\nDuration                                 : 1h 30mn\nSource duration                          : 1h 30mn\nBit rate mode                            : Constant\nBit rate                                 : 448 Kbps\nChannel(s)                               : 6 channels\nChannel positions                        : Front: L C R, Side: L R, LFE\nSampling rate                            : 48.0 KHz\nBit depth                                : 16 bits\nCompression mode                         : Lossy\nStream size                              : 290 MiB (21%)\nAlignment                                : Aligned on interleaves\nInterleave, duration                     : 32 ms (0.80 video frame)","torrent":{"xt":"urn:btih:53bd35d98ac44cac38a3bfb98c25600a2106e353","amp;dn":"Wrong+Turn+6%2C+Last+Resort+2014+DVDrip+English+Klam","amp;tr":["udp%3A%2F%2Ftracker.openbittorrent.com%3A80","udp%3A%2F%2Fopen.demonii.com%3A1337","udp%3A%2F%2Ftracker.coppersurfer.tk%3A6969","udp%3A%2F%2Fexodus.desync.com%3A6969"],"infoHash":"53bd35d98ac44cac38a3bfb98c25600a2106e353","infoHashBuffer":{"type":"Buffer","data":[83,189,53,217,138,196,76,172,56,163,191,185,140,37,96,10,33,6,227,83]},"announce":[],"urlList":[]}}